HIERARCHY
ROOT hip
{
  OFFSET -161.874 85.8073 19.4603
  CHANNELS 6 Xposition Yposition Zposition Zrotation Xrotation Yrotation
  JOINT abdomen
  {
    OFFSET 0 20.6881 -0.73152
    CHANNELS 3 Zrotation Xrotation Yrotation
    JOINT chest
    {
      OFFSET 0 11.7043 -0.48768
      CHANNELS 3 Zrotation Xrotation Yrotation
      JOINT neck
      {
        OFFSET 0 22.1894 -2.19456
        CHANNELS 3 Zrotation Xrotation Yrotation
        JOINT head
        {
          OFFSET -0.24384 7.07133 1.2192
          CHANNELS 3 Zrotation Xrotation Yrotation
          JOINT leftEye
          {
            OFFSET 4.14528 8.04674 8.04672
            CHANNELS 3 Zrotation Xrotation Yrotation
            End Site
            {
              OFFSET 1 0 0
            }
          }
          JOINT rightEye
          {
            OFFSET -3.6576 8.04674 8.04672
            CHANNELS 3 Zrotation Xrotation Yrotation
            End Site
            {
              OFFSET 1 0 0
            }
          }
        }
      }
      JOINT rCollar
      {
        OFFSET -2.68224 19.2634 -4.8768
        CHANNELS 3 Zrotation Xrotation Yrotation
        JOINT rShldr
        {
          OFFSET -8.77824 -1.95073 1.46304
          CHANNELS 3 Zrotation Xrotation Yrotation
          JOINT rForeArm
          {
            OFFSET -28.1742 -1.7115 0.48768
            CHANNELS 3 Zrotation Xrotation Yrotation
            JOINT rHand
            {
              OFFSET -22.5879 0.773209 7.07136
              CHANNELS 3 Zrotation Xrotation Yrotation
              JOINT rThumb1
              {
                OFFSET -1.2192 -0.487915 3.41376
                CHANNELS 3 Zrotation Xrotation Yrotation
                JOINT rThumb2
                {
                  OFFSET -3.37035 -0.52449 3.41376
                  CHANNELS 3 Zrotation Xrotation Yrotation
                  End Site
                  {
                    OFFSET -1.78271 -1.18214 1.43049
                  }
                }
              }
              JOINT rIndex1
              {
                OFFSET -7.75947 0.938293 5.60832
                CHANNELS 3 Zrotation Xrotation Yrotation
                JOINT rIndex2
                {
                  OFFSET -2.54057 -0.884171 1.56538
                  CHANNELS 3 Zrotation Xrotation Yrotation
                  End Site
                  {
                    OFFSET -1.62519 -0.234802 1.16502
                  }
                }
              }
              JOINT rMid1
              {
                OFFSET -8.24714 1.18213 3.41376
                CHANNELS 3 Zrotation Xrotation Yrotation
                JOINT rMid2
                {
                  OFFSET -3.10165 -0.590103 1.0647
                  CHANNELS 3 Zrotation Xrotation Yrotation
                  End Site
                  {
                    OFFSET -2.48547 -0.328903 0.83742
                  }
                }
              }
              JOINT rRing1
              {
                OFFSET -8.82822 0.546677 1.51678
                CHANNELS 3 Zrotation Xrotation Yrotation
                JOINT rRing2
                {
                  OFFSET -2.60934 -0.819778 -0.0198488
                  CHANNELS 3 Zrotation Xrotation Yrotation
                  End Site
                  {
                    OFFSET -2.33842 -0.294052 0.168128
                  }
                }
              }
              JOINT rPinky1
              {
                OFFSET -8.27202 -0.0477905 -0.4584
                CHANNELS 3 Zrotation Xrotation Yrotation
                JOINT rPinky2
                {
                  OFFSET -1.82734 -0.647385 -0.700984
                  CHANNELS 3 Zrotation Xrotation Yrotation
                  End Site
                  {
                    OFFSET -1.69225 -0.51767 -0.607171
                  }
                }
              }
            }
          }
        }
      }
      JOINT lCollar
      {
        OFFSET 2.68224 19.2634 -4.8768
        CHANNELS 3 Zrotation Xrotation Yrotation
        JOINT lShldr
        {
          OFFSET 8.77824 -1.95073 1.46304
          CHANNELS 3 Zrotation Xrotation Yrotation
          JOINT lForeArm
          {
            OFFSET 28.1742 -1.7115 0.48768
            CHANNELS 3 Zrotation Xrotation Yrotation
            JOINT lHand
            {
              OFFSET 22.5879 0.773209 7.07136
              CHANNELS 3 Zrotation Xrotation Yrotation
              JOINT lThumb1
              {
                OFFSET 1.2192 -0.487915 3.41376
                CHANNELS 3 Zrotation Xrotation Yrotation
                JOINT lThumb2
                {
                  OFFSET 3.37035 -0.52449 3.41376
                  CHANNELS 3 Zrotation Xrotation Yrotation
                  End Site
                  {
                    OFFSET 1.78271 -1.18214 1.43049
                  }
                }
              }
              JOINT lIndex1
              {
                OFFSET 7.75947 0.938293 5.60832
                CHANNELS 3 Zrotation Xrotation Yrotation
                JOINT lIndex2
                {
                  OFFSET 2.54057 -0.884171 1.56538
                  CHANNELS 3 Zrotation Xrotation Yrotation
                  End Site
                  {
                    OFFSET 1.62519 -0.234802 1.16502
                  }
                }
              }
              JOINT lMid1
              {
                OFFSET 8.24714 1.18213 3.41376
                CHANNELS 3 Zrotation Xrotation Yrotation
                JOINT lMid2
                {
                  OFFSET 3.10165 -0.590103 1.0647
                  CHANNELS 3 Zrotation Xrotation Yrotation
                  End Site
                  {
                    OFFSET 2.48547 -0.328903 0.83742
                  }
                }
              }
              JOINT lRing1
              {
                OFFSET 8.82822 0.546677 1.51678
                CHANNELS 3 Zrotation Xrotation Yrotation
                JOINT lRing2
                {
                  OFFSET 2.60934 -0.819778 -0.0198488
                  CHANNELS 3 Zrotation Xrotation Yrotation
                  End Site
                  {
                    OFFSET 2.33842 -0.294052 0.168128
                  }
                }
              }
              JOINT lPinky1
              {
                OFFSET 8.27202 -0.0477905 -0.4584
                CHANNELS 3 Zrotation Xrotation Yrotation
                JOINT lPinky2
                {
                  OFFSET 1.82734 -0.647385 -0.700984
                  CHANNELS 3 Zrotation Xrotation Yrotation
                  End Site
                  {
                    OFFSET 1.69225 -0.51767 -0.607171
                  }
                }
              }
            }
          }
        }
      }
    }
  }
  JOINT rButtock
  {
    OFFSET -8.77824 4.35084 1.2192
    CHANNELS 3 Zrotation Xrotation Yrotation
    JOINT rThigh
    {
      OFFSET 0 -1.70687 -2.19456
      CHANNELS 3 Zrotation Xrotation Yrotation
      JOINT rShin
      {
        OFFSET 0 -36.8199 0.73152
        CHANNELS 3 Zrotation Xrotation Yrotation
        JOINT rFoot
        {
          OFFSET 0.73152 -45.1104 -5.12064
          CHANNELS 3 Zrotation Xrotation Yrotation
          End Site
          {
            OFFSET -1.1221 -3.69964 12.103
          }
        }
      }
    }
  }
  JOINT lButtock
  {
    OFFSET 8.77824 4.35084 1.2192
    CHANNELS 3 Zrotation Xrotation Yrotation
    JOINT lThigh
    {
      OFFSET 0 -1.70687 -2.19456
      CHANNELS 3 Zrotation Xrotation Yrotation
      JOINT lShin
      {
        OFFSET 0 -36.8199 0.73152
        CHANNELS 3 Zrotation Xrotation Yrotation
        JOINT lFoot
        {
          OFFSET -0.73152 -45.1104 -5.12064
          CHANNELS 3 Zrotation Xrotation Yrotation
          End Site
          {
            OFFSET 1.1221 -3.69964 12.103
          }
        }
      }
    }
  }
}
MOTION
Frames:	5
Frame Time:	0.00833333
169.451 84.7658 41.8494 0.292819 -0.000579788 -0.00500385 -0.385199 -0.00168812 -0.0109959 -0.106235 -0.00256709 -0.018405 1.31698e-014 0 -9.93923e-017 3.95581e-014 3.18055e-015 -2.88859e-016 -0 0 0 -0 0 0 6.60851e-015 5.04727e-018 9.93923e-017 1.39958e-013 -4.96962e-017 5.96354e-016 2.38199e-012 -7.06481e-013 -1.59028e-014 2.72535e-011 7.35901e-013 -1.7175e-013 6.42902e-011 6.64811e-014 -3.84847e-013 1.11019e-010 1.20861e-013 -6.91771e-013 6.42937e-011 6.79844e-014 -4.0393e-013 7.73091 5.47488 0.417314 6.42906e-011 6.65929e-014 -3.91208e-013 2.90554 0.965183 0.102902 6.42979e-011 6.60959e-014 -3.94389e-013 10.2786 0.731801 0.0259123 6.42844e-011 6.83819e-014 -3.91208e-013 2.22167 -0.733487 -0.20892 6.51171e-015 4.46489e-018 -1.98785e-016 1.3564e-013 -3.10601e-017 -1.39149e-015 2.37836e-012 7.17811e-013 -5.40694e-014 2.72581e-011 -6.86727e-013 -1.145e-013 6.42919e-011 7.03876e-014 -4.0393e-013 1.11037e-010 1.20861e-013 -6.91771e-013 6.42882e-011 7.07673e-014 -3.97569e-013 -7.73091 5.47488 -0.417314 6.4292e-011 7.05686e-014 -4.0075e-013 -2.90554 0.965183 -0.102902 6.4283e-011 7.04692e-014 -3.9916e-013 -10.2786 0.731801 -0.0259123 6.42961e-011 7.27552e-014 -4.0075e-013 -2.22167 -0.733487 0.20892 -2.03217e-016 0 -3.88251e-019 0.221693 -2.58355 -0.0280818 -0.0074899 -0.872637 -0.0651428 -0.513156 3.45577 0.129354 2.03217e-016 0 3.88251e-019 -0.807732 -4.07085 0.0653898 0.00325545 1.8214 0.0244292 0.517666 2.24911 -0.105174 
165.158 82.9405 35.709 -11.2347 21.48 -26.2047 0.818618 -0.298204 -2.09519 1.5335 0.286999 -0.636089 -0.748326 -0.0981141 -0.343379 2.55712 -0.308936 -0.576412 -0 0 0 -0 0 0 -4.69028e-014 1.19501e-013 3.29633e-014 20.4424 -1.53227 2.73998 -2.28833 -0.82214 3.77676 0.109228 7.58962 1.03797 -4.48007e-010 -1.05874e-009 1.34682e-009 -7.41995e-010 -1.82756e-009 2.33483e-009 -4.48003e-010 -1.05874e-009 1.3468e-009 7.73091 5.47488 0.417314 -4.48007e-010 -1.05874e-009 1.34681e-009 2.90554 0.965183 0.102902 -4.47999e-010 -1.05874e-009 1.34681e-009 10.2786 0.731801 0.0259123 -4.48013e-010 -1.05874e-009 1.34681e-009 2.22167 -0.733487 -0.20892 -4.70206e-014 1.19495e-013 3.26481e-014 -24.7169 -1.08383 -0.786024 1.51861 -0.486893 -2.54654 -0.916742 21.5415 -2.30956 5.18097e-010 -1.90611e-010 1.10767e-009 9.55428e-010 -2.81986e-010 1.8597e-009 5.1809e-010 -1.90611e-010 1.10767e-009 -7.73091 5.47488 -0.417314 5.18097e-010 -1.90611e-010 1.10767e-009 -2.90554 0.965183 -0.102902 5.18089e-010 -1.90611e-010 1.10767e-009 -10.2786 0.731801 -0.0259123 5.18102e-010 -1.90609e-010 1.10767e-009 -2.22167 -0.733487 0.20892 -2.03217e-016 0 -3.88251e-019 0.444168 -11.6629 1.8878 -0.0215369 5.94507 0.00228382 -0.514309 4.4185 -1.46201 2.03217e-016 0 3.88251e-019 -0.00391209 -3.97264 -0.753318 -0.0203639 10.0945 -0.135696 0.429108 1.16609 -2.26263 
164.216 83.0369 35.5271 -3.35513 29.0171 -61.0716 2.02886 -0.606322 -4.30746 3.28499 0.590605 -1.29146 -1.53656 -0.196811 -0.702929 5.25928 -0.614381 -1.1837 -0 0 0 -0 0 0 -1.07175e-013 2.56142e-013 6.97051e-014 42.137 -2.80433 5.71957 -4.62053 -1.69347 7.82412 -0.0880415 15.3715 2.16832 -9.78497e-010 -2.21736e-009 2.81493e-009 -1.62399e-009 -3.82664e-009 4.87896e-009 -9.78493e-010 -2.21735e-009 2.8149e-009 7.73091 5.47488 0.417314 -9.78498e-010 -2.21736e-009 2.81492e-009 2.90554 0.965183 0.102902 -9.7849e-010 -2.21736e-009 2.81491e-009 10.2786 0.731801 0.0259123 -9.78502e-010 -2.21736e-009 2.81492e-009 2.22167 -0.733487 -0.20892 -1.07315e-013 2.56129e-013 6.93696e-014 -50.8729 -2.03574 -1.69598 3.08641 -1.00216 -5.25519 0.673037 44.0798 -6.15491 9.85445e-010 -3.97181e-010 2.32429e-009 1.8299e-009 -5.85103e-010 3.90441e-009 9.85436e-010 -3.97181e-010 2.32429e-009 -7.73091 5.47488 -0.417314 9.85446e-010 -3.97181e-010 2.32429e-009 -2.90554 0.965183 -0.102902 9.85439e-010 -3.97181e-010 2.32429e-009 -10.2786 0.731801 -0.0259123 9.85452e-010 -3.97178e-010 2.32429e-009 -2.22167 -0.733487 0.20892 -2.03217e-016 0 -3.88251e-019 1.34296 -21.2644 4.12107 -0.0540173 13.1507 0.0762808 -0.456044 5.46838 -3.14973 2.03217e-016 0 3.88251e-019 0.790258 -3.79606 -1.62961 0.00663994 18.7253 -0.316921 0.238132 -0.147631 -4.51311 
163.283 83.1321 35.3477 5.28545 16.2635 -84.2499 3.16167 -0.886509 -6.26423 4.83168 0.865722 -1.87165 -2.2485 -0.2943 -1.03015 7.65271 -0.926432 -1.72944 -0 0 0 -0 0 0 -1.53925e-013 3.58493e-013 9.86911e-014 61.7663 -4.55471 8.2432 -6.54195 -2.42359 11.3394 -0.555904 22.7377 3.34699 -1.4726e-009 -3.17635e-009 4.04123e-009 -2.44802e-009 -5.48293e-009 7.00586e-009 -1.4726e-009 -3.17634e-009 4.0412e-009 7.73091 5.47488 0.417314 -1.4726e-009 -3.17635e-009 4.04122e-009 2.90554 0.965183 0.102902 -1.47259e-009 -3.17635e-009 4.04121e-009 10.2786 0.731801 0.0259123 -1.47261e-009 -3.17635e-009 4.04121e-009 2.22167 -0.733487 -0.20892 -1.54085e-013 3.58475e-013 9.83417e-014 -74.2399 -3.24904 -2.36145 4.42637 -1.44914 -7.6418 8.0457 63.9177 -14.7907 1.42571e-009 -5.71974e-010 3.32381e-009 2.64421e-009 -8.462e-010 5.58049e-009 1.42569e-009 -5.71974e-010 3.32382e-009 -7.73091 5.47488 -0.417314 1.42571e-009 -5.71974e-010 3.32381e-009 -2.90554 0.965183 -0.102902 1.4257e-009 -5.71974e-010 3.32381e-009 -10.2786 0.731801 -0.0259123 1.42571e-009 -5.71972e-010 3.32381e-009 -2.22167 -0.733487 0.20892 -2.03217e-016 0 -3.88251e-019 2.94665 -29.6831 6.45211 -0.0996667 19.5804 0.145499 -0.355523 6.32743 -4.65968 2.03217e-016 0 3.88251e-019 1.61218 -3.77397 -2.39016 0.0850427 26.6399 -0.50302 0.00781681 -0.990659 -6.57729 
162.356 83.2232 35.0886 7.36376 1.4843 -89.8817 4.14547 -1.10131 -7.58168 5.85326 1.07001 -2.26372 -2.76756 -0.388804 -1.27653 9.28531 -1.25529 -2.12116 -0 0 0 -0 0 0 -1.66872e-013 3.75116e-013 1.08288e-013 76.0415 -7.52792 9.63152 -7.67881 -2.84573 13.5148 -1.16387 29.0872 4.48412 -1.87574e-009 -3.63626e-009 4.66301e-009 -3.12717e-009 -6.28229e-009 8.08966e-009 -1.87574e-009 -3.63626e-009 4.66298e-009 7.73091 5.47488 0.417314 -1.87574e-009 -3.63626e-009 4.663e-009 2.90554 0.965183 0.102902 -1.87574e-009 -3.63626e-009 4.66299e-009 10.2786 0.731801 0.0259123 -1.87575e-009 -3.63626e-009 4.663e-009 2.22167 -0.733487 -0.20892 -1.67047e-013 3.75097e-013 1.0794e-013 -90.5717 -5.11862 -2.41431 5.29076 -1.73689 -9.22117 29.7607 76.8635 -37.0277 1.79825e-009 -6.67326e-010 3.78059e-009 3.30809e-009 -1.00225e-009 6.33498e-009 1.79823e-009 -6.67326e-010 3.7806e-009 -7.73091 5.47488 -0.417314 1.79825e-009 -6.67326e-010 3.78059e-009 -2.90554 0.965183 -0.102902 1.79824e-009 -6.67326e-010 3.7806e-009 -10.2786 0.731801 -0.0259123 1.79826e-009 -6.67323e-010 3.78059e-009 -2.22167 -0.733487 0.20892 -2.03217e-016 0 -3.88251e-019 4.74945 -35.278 8.33099 -0.141365 24.0707 0.193726 -0.273274 6.72403 -5.71184 2.03217e-016 0 3.88251e-019 2.48802 -4.13937 -2.86242 0.186069 32.7646 -0.661677 -0.0888024 -0.674541 -8.17076 
